<?xml version="1.0" encoding="UTF-8" standalone="no"?>
<!-- Created with Inkscape (http://www.inkscape.org/) -->

<svg
   xmlns:dc="http://purl.org/dc/elements/1.1/"
   xmlns:cc="http://creativecommons.org/ns#"
   xmlns:rdf="http://www.w3.org/1999/02/22-rdf-syntax-ns#"
   xmlns:svg="http://www.w3.org/2000/svg"
   xmlns="http://www.w3.org/2000/svg"
   xmlns:sodipodi="http://sodipodi.sourceforge.net/DTD/sodipodi-0.dtd"
   xmlns:inkscape="http://www.inkscape.org/namespaces/inkscape"
   width="26.458334mm"
   height="26.897566mm"
   viewBox="0 0 26.458334 26.897567"
   version="1.1"
   id="svg5396"
   inkscape:version="0.92.3 (2405546, 2018-03-11)"
   sodipodi:docname="drawing3.svg">
  <defs
     id="defs5390">
    <clipPath
       id="clipPath5414"
       clipPathUnits="userSpaceOnUse">
      <path
         inkscape:connector-curvature="0"
         id="path5412"
         d="M 0,612 H 612 V 0 H 0 Z" />
    </clipPath>
  </defs>
  <sodipodi:namedview
     id="base"
     pagecolor="#ffffff"
     bordercolor="#666666"
     borderopacity="1.0"
     inkscape:pageopacity="0.0"
     inkscape:pageshadow="2"
     inkscape:zoom="2.8"
     inkscape:cx="-63.109545"
     inkscape:cy="68.464329"
     inkscape:document-units="mm"
     inkscape:current-layer="layer1"
     showgrid="false"
     inkscape:window-width="1920"
     inkscape:window-height="1057"
     inkscape:window-x="2552"
     inkscape:window-y="-8"
     inkscape:window-maximized="1" />
  <metadata
     id="metadata5393">
    <rdf:RDF>
      <cc:Work
         rdf:about="">
        <dc:format>image/svg+xml</dc:format>
        <dc:type
           rdf:resource="http://purl.org/dc/dcmitype/StillImage" />
        <dc:title></dc:title>
      </cc:Work>
    </rdf:RDF>
  </metadata>
  <g
     inkscape:label="Layer 1"
     inkscape:groupmode="layer"
     id="layer1"
     transform="translate(-14.784508,-199.25154)">
    <g
       id="g5416"
       transform="matrix(0.05589885,0,0,-0.05589885,35.495099,208.71829)">
      <path
         d="M 0,0 C 12.331,18.289 37.153,23.12 55.442,10.789 73.731,-1.542 78.562,-26.364 66.231,-44.653 53.9,-62.942 29.078,-67.773 10.789,-55.442 -7.5,-43.112 -12.331,-18.289 0,0"
         style="fill:#00aeef;fill-opacity:1;fill-rule:nonzero;stroke:none"
         id="path5418"
         inkscape:connector-curvature="0" />
    </g>
    <g
       id="g5420"
       transform="matrix(0.05589885,0,0,-0.05589885,38.40645,216.77063)">
      <path
         d="m 0,0 c 0,0 -3.104,39.918 -51.929,72.836 -48.824,32.917 -86.993,20.826 -86.993,20.826 -36.641,-46.78 -45.353,-121.702 -40.646,-210.146 C -95.813,-87.681 -29.626,-51.509 0,0"
         style="fill:#00aeef;fill-opacity:1;fill-rule:nonzero;stroke:none"
         id="path5422"
         inkscape:connector-curvature="0" />
    </g>
    <g
       id="g5424"
       transform="matrix(0.05589885,0,0,-0.05589885,20.532245,208.71829)">
      <path
         d="m 0,0 c -12.331,18.289 -37.153,23.12 -55.442,10.789 -18.29,-12.331 -23.12,-37.153 -10.789,-55.442 12.331,-18.289 37.153,-23.12 55.442,-10.789 C 7.5,-43.112 12.33,-18.289 0,0"
         style="fill:#00aeef;fill-opacity:1;fill-rule:nonzero;stroke:none"
         id="path5426"
         inkscape:connector-curvature="0" />
    </g>
    <g
       id="g5428"
       transform="matrix(0.05589885,0,0,-0.05589885,17.620893,216.77063)">
      <path
         d="m 0,0 c 0,0 3.104,39.918 51.929,72.836 48.824,32.917 86.993,20.826 86.993,20.826 36.641,-46.78 45.353,-121.702 40.646,-210.146 C 95.813,-87.681 29.626,-51.509 0,0"
         style="fill:#00aeef;fill-opacity:1;fill-rule:nonzero;stroke:none"
         id="path5430"
         inkscape:connector-curvature="0" />
    </g>
    <g
       id="g5432"
       transform="matrix(0.05589885,0,0,-0.05589885,25.41397,204.49708)">
      <path
         d="M 0,0 C 0,25.685 20.822,46.507 46.507,46.507 72.192,46.507 93.014,25.685 93.014,0 93.014,-25.685 72.192,-46.507 46.507,-46.507 20.822,-46.507 0,-25.685 0,0"
         style="fill:#2e3092;fill-opacity:1;fill-rule:nonzero;stroke:none"
         id="path5434"
         inkscape:connector-curvature="0" />
    </g>
    <g
       id="g5436"
       transform="matrix(0.05589885,0,0,-0.05589885,33.466613,210.37658)">
      <path
         d="M 0,0 C 0,0 -28.982,36.521 -97.55,36.521 -166.119,36.521 -195.101,0 -195.101,0 -200.026,-69.018 -159.668,-147.028 -97.55,-229.358 -35.433,-147.028 4.926,-69.018 0,0"
         style="fill:#2e3092;fill-opacity:1;fill-rule:nonzero;stroke:none"
         id="path5438"
         inkscape:connector-curvature="0" />
    </g>
    <g
       id="g5440"
       transform="matrix(0.05589885,0,0,-0.05589885,28.013675,207.88189)">
      <path
         d="m 0,0 c -71.661,0 -102.619,-37.972 -103.901,-39.588 l -1.558,-1.964 -0.179,-2.499 c -2.46,-34.468 5.497,-71.621 24.324,-113.584 16.418,-36.59 40.898,-76.246 74.842,-121.235 l 6.472,-8.578 6.472,8.578 c 33.944,44.989 58.424,84.645 74.842,121.235 18.827,41.963 26.784,79.116 24.324,113.584 l -0.179,2.499 -1.558,1.964 C 102.619,-37.972 71.661,0 0,0 m 0,-8.108 c 68.569,0 97.55,-36.521 97.55,-36.521 4.926,-69.018 -35.433,-147.027 -97.55,-229.357 -62.117,82.33 -102.476,160.339 -97.55,229.357 0,0 28.981,36.521 97.55,36.521"
         style="fill:#2e3092;fill-opacity:1;fill-rule:nonzero;stroke:none"
         id="path5442"
         inkscape:connector-curvature="0" />
    </g>
    <g
       id="g5444"
       transform="matrix(0.05589885,0,0,-0.05589885,30.763876,211.75607)">
      <path
         d="m 0,0 c -4.101,0 -7.439,3.337 -7.439,7.438 0,4.101 3.338,7.44 7.439,7.44 4.101,0 7.439,-3.339 7.439,-7.44 C 7.439,3.337 4.101,0 0,0 m 6.488,25.05 c -0.349,5.717 -2.11,15.163 -9.25,23.693 -8.763,10.465 -22.738,16.348 -41.535,17.481 -45.579,2.741 -58.401,-26.057 -61.347,-35.41 -2.49,-1.336 -5.13,-3.594 -7.641,-7.307 -12.807,-18.945 2.112,-44.053 2.754,-45.112 l 9.71,5.878 c -0.119,0.198 -11.703,20.091 -3.06,32.877 1.034,1.528 3.058,4.038 5.013,4.049 2.633,-0.05 6.244,-3.914 7.844,-6.491 l 0.214,-0.38 0.347,-0.388 c 0.295,-0.348 7.159,-8.768 3.3,-26.67 l 11.096,-2.392 c 4.653,21.585 -3.517,33.586 -5.489,36.095 -1.032,1.604 -4.794,6.98 -10.363,9.805 3.771,8.542 15.094,24.414 46.841,22.498 14.996,-0.906 25.845,-5.183 32.245,-12.714 4.646,-5.469 5.975,-11.658 6.321,-15.521 -7.156,-2.656 -12.278,-9.534 -12.278,-17.603 0,-10.36 8.43,-18.789 18.79,-18.789 10.361,0 18.79,8.429 18.79,18.789 0,8.078 -5.134,14.962 -12.302,17.612"
         style="fill:#ffffff;fill-opacity:1;fill-rule:nonzero;stroke:none"
         id="path5446"
         inkscape:connector-curvature="0" />
    </g>
  </g>
</svg>
