<?xml version="1.0" encoding="UTF-8" standalone="no"?>
<!-- Created with Inkscape (http://www.inkscape.org/) -->

<svg
   xmlns:dc="http://purl.org/dc/elements/1.1/"
   xmlns:cc="http://creativecommons.org/ns#"
   xmlns:rdf="http://www.w3.org/1999/02/22-rdf-syntax-ns#"
   xmlns:svg="http://www.w3.org/2000/svg"
   xmlns="http://www.w3.org/2000/svg"
   xmlns:sodipodi="http://sodipodi.sourceforge.net/DTD/sodipodi-0.dtd"
   xmlns:inkscape="http://www.inkscape.org/namespaces/inkscape"
   width="58.07592"
   height="19.338558"
   viewBox="0 0 208.97652 69.586578"
   version="1.1"
   id="svg8305"
   inkscape:version="0.92.3 (2405546, 2018-03-11)"
   sodipodi:docname="logo-horizontal1.svg">
  <defs
     id="defs8299">
    <clipPath
       id="clipPath8436"
       clipPathUnits="userSpaceOnUse">
      <path
         inkscape:connector-curvature="0"
         id="path8434"
         d="M 0,612 H 612 V 0 H 0 Z" />
    </clipPath>
  </defs>
  <sodipodi:namedview
     id="base"
     pagecolor="#ffffff"
     bordercolor="#666666"
     borderopacity="1.0"
     inkscape:pageopacity="0.0"
     inkscape:pageshadow="2"
     inkscape:zoom="1.979899"
     inkscape:cx="-140.11174"
     inkscape:cy="-92.285434"
     inkscape:document-units="mm"
     inkscape:current-layer="layer1"
     showgrid="false"
     inkscape:window-width="2560"
     inkscape:window-height="1417"
     inkscape:window-x="-8"
     inkscape:window-y="-8"
     inkscape:window-maximized="1"
     units="px"
     fit-margin-top="0"
     fit-margin-left="0"
     fit-margin-right="0"
     fit-margin-bottom="0"
     scale-x="13.6" />
  <metadata
     id="metadata8302">
    <rdf:RDF>
      <cc:Work
         rdf:about="">
        <dc:format>image/svg+xml</dc:format>
        <dc:type
           rdf:resource="http://purl.org/dc/dcmitype/StillImage" />
        <dc:title></dc:title>
      </cc:Work>
    </rdf:RDF>
  </metadata>
  <g
     inkscape:label="Layer 1"
     inkscape:groupmode="layer"
     id="layer1"
     transform="translate(-2.1010277,-160.15314)">
    <g
       transform="matrix(0.35277777,0,0,-0.35277777,-1.2946329,235.20322)"
       inkscape:label="mediwise logo 20180824"
       id="g8428">
      <g
         id="g8430">
        <g
           clip-path="url(#clipPath8436)"
           id="g8432">
          <g
             transform="translate(179.9936,151.7298)"
             id="g8438">
            <path
               inkscape:connector-curvature="0"
               id="path8440"
               style="fill:#00aeef;fill-opacity:1;fill-rule:nonzero;stroke:none"
               d="m 0,0 c 6.165,9.145 18.576,11.56 27.721,5.394 9.145,-6.165 11.56,-18.576 5.395,-27.721 C 26.95,-31.471 14.539,-33.886 5.395,-27.721 -3.75,-21.556 -6.165,-9.145 0,0" />
          </g>
          <g
             transform="translate(206.0349,79.7038)"
             id="g8442">
            <path
               inkscape:connector-curvature="0"
               id="path8444"
               style="fill:#00aeef;fill-opacity:1;fill-rule:nonzero;stroke:none"
               d="M 0,0 C 0,0 -1.552,19.959 -25.964,36.418 -50.377,52.877 -69.461,46.831 -69.461,46.831 -87.781,23.441 -92.138,-14.02 -89.784,-58.242 -47.907,-43.841 -14.813,-25.755 0,0" />
          </g>
          <g
             transform="translate(46.155,151.7298)"
             id="g8446">
            <path
               inkscape:connector-curvature="0"
               id="path8448"
               style="fill:#00aeef;fill-opacity:1;fill-rule:nonzero;stroke:none"
               d="m 0,0 c -6.165,9.145 -18.576,11.56 -27.721,5.394 -9.145,-6.165 -11.56,-18.576 -5.395,-27.721 6.166,-9.144 18.577,-11.559 27.721,-5.394 C 3.75,-21.556 6.165,-9.145 0,0" />
          </g>
          <g
             transform="translate(20.1137,79.7038)"
             id="g8450">
            <path
               inkscape:connector-curvature="0"
               id="path8452"
               style="fill:#00aeef;fill-opacity:1;fill-rule:nonzero;stroke:none"
               d="M 0,0 C 0,0 1.552,19.959 25.964,36.418 50.377,52.877 69.461,46.831 69.461,46.831 87.781,23.441 92.138,-14.02 89.784,-58.242 47.907,-43.841 14.813,-25.755 0,0" />
          </g>
          <g
             transform="translate(89.8207,189.4874)"
             id="g8454">
            <path
               inkscape:connector-curvature="0"
               id="path8456"
               style="fill:#2e3092;fill-opacity:1;fill-rule:nonzero;stroke:none"
               d="M 0,0 C 0,12.843 10.411,23.253 23.254,23.253 36.096,23.253 46.507,12.843 46.507,0 46.507,-12.843 36.096,-23.254 23.254,-23.254 10.411,-23.254 0,-12.843 0,0" />
          </g>
          <g
             transform="translate(161.8494,136.8968)"
             id="g8458">
            <path
               inkscape:connector-curvature="0"
               id="path8460"
               style="fill:#2e3092;fill-opacity:1;fill-rule:nonzero;stroke:none"
               d="M 0,0 C 0,0 -14.491,18.26 -48.775,18.26 -83.059,18.26 -97.55,0 -97.55,0 -100.013,-34.509 -79.834,-73.514 -48.775,-114.679 -17.716,-73.514 2.463,-34.509 0,0" />
          </g>
          <g
             transform="translate(113.0743,159.2111)"
             id="g8462">
            <path
               inkscape:connector-curvature="0"
               id="path8464"
               style="fill:#2e3092;fill-opacity:1;fill-rule:nonzero;stroke:none"
               d="m 0,0 c -35.831,0 -51.309,-18.986 -51.951,-19.794 l -0.779,-0.982 -0.089,-1.25 c -1.23,-17.234 2.748,-35.81 12.162,-56.791 8.209,-18.296 20.449,-38.124 37.421,-60.618 l 3.236,-4.289 3.236,4.289 c 16.972,22.494 29.212,42.322 37.421,60.618 9.414,20.981 13.392,39.557 12.162,56.791 l -0.089,1.25 -0.779,0.982 C 51.309,-18.986 35.831,0 0,0 m 0,-4.054 c 34.284,0 48.775,-18.26 48.775,-18.26 C 51.238,-56.823 31.059,-95.828 0,-136.993 c -31.059,41.165 -51.238,80.17 -48.775,114.679 0,0 14.491,18.26 48.775,18.26" />
          </g>
          <g
             transform="translate(137.6741,124.5576)"
             id="g8466">
            <path
               inkscape:connector-curvature="0"
               id="path8468"
               style="fill:#ffffff;fill-opacity:1;fill-rule:nonzero;stroke:none"
               d="m 0,0 c -2.051,0 -3.719,1.668 -3.719,3.719 0,2.051 1.668,3.72 3.719,3.72 2.051,0 3.719,-1.669 3.719,-3.72 C 3.719,1.668 2.051,0 0,0 m 3.244,12.525 c -0.174,2.858 -1.055,7.582 -4.625,11.846 -4.382,5.233 -11.369,8.174 -20.768,8.741 -22.789,1.37 -29.2,-13.029 -30.673,-17.705 -1.245,-0.668 -2.565,-1.797 -3.82,-3.654 -6.404,-9.472 1.056,-22.026 1.376,-22.555 l 4.856,2.939 c -0.06,0.099 -5.852,10.045 -1.531,16.438 0.517,0.764 1.529,2.019 2.507,2.025 1.317,-0.026 3.122,-1.958 3.922,-3.246 l 0.107,-0.19 0.174,-0.194 c 0.147,-0.174 3.579,-4.384 1.649,-13.335 l 5.548,-1.196 c 2.327,10.792 -1.758,16.793 -2.744,18.047 -0.516,0.802 -2.397,3.49 -5.181,4.903 1.885,4.271 7.546,12.207 23.42,11.249 7.498,-0.453 12.923,-2.591 16.122,-6.357 2.324,-2.734 2.988,-5.829 3.161,-7.76 -3.578,-1.329 -6.139,-4.767 -6.139,-8.802 0,-5.18 4.215,-9.395 9.395,-9.395 5.18,0 9.395,4.215 9.395,9.395 0,4.039 -2.567,7.481 -6.151,8.806" />
          </g>
          <g
             transform="translate(280.7595,127.9937)"
             id="g8470">
            <path
               inkscape:connector-curvature="0"
               id="path8472"
               style="fill:#414142;fill-opacity:1;fill-rule:nonzero;stroke:none"
               d="m 0,0 v -56.08 h -15.982 v 40.098 L -26.356,-56.08 h -10.928 l -10.785,40.098 V -56.08 H -60.97 V 0 h 22.494 L -30.341,-29.786 -22.576,0 Z" />
          </g>
          <g
             transform="translate(316.4621,97.7555)"
             id="g8474">
            <path
               inkscape:connector-curvature="0"
               id="path8476"
               style="fill:#414142;fill-opacity:1;fill-rule:nonzero;stroke:none"
               d="M 0,0 C -0.028,2.82 -0.594,4.717 -1.699,5.69 -2.805,6.662 -4.176,7.149 -5.814,7.149 -9.69,7.149 -11.627,4.765 -11.627,0 Z m 1.109,-10.846 15.284,-1.028 c -0.904,-4.108 -3.212,-7.607 -6.923,-10.497 -3.712,-2.89 -8.73,-4.334 -15.058,-4.334 -7.039,0 -12.654,2.034 -16.844,6.101 -4.191,4.067 -6.286,9.113 -6.286,15.139 0,6.245 2.068,11.518 6.204,15.818 4.135,4.3 9.655,6.45 16.557,6.45 6.682,0 12.085,-2.027 16.208,-6.08 4.122,-4.054 6.183,-9.573 6.183,-16.557 0,-0.575 -0.014,-1.37 -0.041,-2.383 h -27.979 c 0.055,-2.629 0.52,-4.581 1.397,-5.855 0.876,-1.273 2.547,-1.91 5.012,-1.91 3.56,0 5.656,1.711 6.286,5.136" />
          </g>
          <g
             transform="translate(363.956,98.7822)"
             id="g8478">
            <path
               inkscape:connector-curvature="0"
               id="path8480"
               style="fill:#414142;fill-opacity:1;fill-rule:nonzero;stroke:none"
               d="m 0,0 c 0,3.752 -1.548,5.629 -4.643,5.629 -2.164,0 -3.581,-1.192 -4.252,-3.575 -0.671,-2.382 -1.006,-5.3 -1.006,-8.751 0,-6.765 1.725,-10.147 5.176,-10.147 1.315,0 2.431,0.534 3.349,1.602 0.917,1.068 1.376,2.697 1.376,4.889 z M 16.146,-26.869 H 0.78 v 5.546 c -2.273,-4.272 -6.026,-6.409 -11.257,-6.409 -4.821,0 -8.73,1.883 -11.729,5.649 -3,3.766 -4.499,9.237 -4.499,16.413 0,6.711 1.506,12.038 4.519,15.982 3.013,3.944 6.998,5.917 11.956,5.917 4.135,0 7.545,-1.576 10.23,-4.725 v 17.707 h 16.146 z" />
          </g>
          <path
             inkscape:connector-curvature="0"
             id="path8482"
             style="fill:#414142;fill-opacity:1;fill-rule:nonzero;stroke:none"
             d="M 405.123,71.913 H 388.73 v 41.783 h 16.393 z m 0,44.865 H 388.73 v 12.983 h 16.393 z" />
          <g
             transform="translate(484.5802,127.9937)"
             id="g8484">
            <path
               inkscape:connector-curvature="0"
               id="path8486"
               style="fill:#414142;fill-opacity:1;fill-rule:nonzero;stroke:none"
               d="m 0,0 -14.875,-56.08 h -14.461 l -7.846,30.936 -7.408,-30.936 H -59.669 L -74.569,0 h 16.198 L -50.526,-32.278 -42.873,0 h 13.515 L -21.033,-32.341 -13.176,0 Z" />
          </g>
          <path
             inkscape:connector-curvature="0"
             id="path8488"
             style="fill:#414142;fill-opacity:1;fill-rule:nonzero;stroke:none"
             d="m 505.862,71.913 h -16.393 v 41.783 h 16.393 z m 0,44.865 h -16.393 v 12.983 h 16.393 z" />
          <g
             transform="translate(510.7921,83.7452)"
             id="g8490">
            <path
               inkscape:connector-curvature="0"
               id="path8492"
               style="fill:#414142;fill-opacity:1;fill-rule:nonzero;stroke:none"
               d="m 0,0 12.941,1.767 c 0.74,-3.014 3.67,-4.52 8.793,-4.52 4.245,0 6.368,0.822 6.368,2.466 0,0.712 -0.411,1.266 -1.233,1.663 -0.821,0.397 -2.767,0.802 -5.834,1.213 -8.491,1.178 -13.791,3.02 -15.9,5.526 -2.109,2.506 -3.163,5.293 -3.163,8.361 0,4.273 1.78,7.73 5.341,10.373 3.56,2.643 8.231,3.964 14.01,3.964 10.134,0 16.598,-3.656 19.392,-10.969 L 28.307,17.502 c -1.15,2.465 -3.574,3.698 -7.272,3.698 -1.753,0 -3.061,-0.24 -3.923,-0.719 -0.863,-0.48 -1.294,-0.952 -1.294,-1.418 0,-1.369 1.314,-2.203 3.944,-2.5 6.848,-0.757 11.492,-1.534 13.929,-2.329 2.437,-0.795 4.518,-2.248 6.244,-4.358 1.724,-2.111 2.587,-4.659 2.587,-7.647 0,-4.577 -1.91,-8.209 -5.731,-10.895 -3.821,-2.686 -9.087,-4.029 -15.797,-4.029 C 9.682,-12.695 2.684,-8.463 0,0" />
          </g>
          <g
             transform="translate(585.5659,97.7555)"
             id="g8494">
            <path
               inkscape:connector-curvature="0"
               id="path8496"
               style="fill:#414142;fill-opacity:1;fill-rule:nonzero;stroke:none"
               d="M 0,0 C -0.028,2.82 -0.594,4.717 -1.699,5.69 -2.805,6.662 -4.176,7.149 -5.813,7.149 -9.69,7.149 -11.627,4.765 -11.627,0 Z m 1.109,-10.846 15.284,-1.028 c -0.904,-4.108 -3.212,-7.607 -6.923,-10.497 -3.712,-2.89 -8.73,-4.334 -15.058,-4.334 -7.039,0 -12.654,2.034 -16.844,6.101 -4.19,4.067 -6.286,9.113 -6.286,15.139 0,6.245 2.068,11.518 6.204,15.818 4.135,4.3 9.655,6.45 16.557,6.45 6.682,0 12.085,-2.027 16.208,-6.08 4.122,-4.054 6.183,-9.573 6.183,-16.557 0,-0.575 -0.014,-1.37 -0.041,-2.383 h -27.979 c 0.055,-2.629 0.52,-4.581 1.397,-5.855 0.876,-1.273 2.548,-1.91 5.012,-1.91 3.56,0 5.656,1.711 6.286,5.136" />
          </g>
        </g>
      </g>
    </g>
  </g>
</svg>
